<svg xmlns="http://www.w3.org/2000/svg" viewBox="0 0 39.68 59.53"><link xmlns="" type="text/css" rel="stylesheet" id="dark-mode-custom-link"/><link xmlns="" type="text/css" rel="stylesheet" id="dark-mode-general-link"/><style xmlns="" lang="en" type="text/css" id="dark-mode-custom-style"/><style xmlns="" lang="en" type="text/css" id="dark-mode-native-style"/><style xmlns="" lang="en" type="text/css" id="dark-mode-native-sheet"/><defs><style>.cls-1{fill:#fff}</style></defs><g id="Layer_2" data-name="Layer 2"><g id="Layer_1-2" data-name="Layer 1"><path class="cls-1" d="M39.69 0H0v59.53h39.69V0z"/><path d="M39.11.64v58.25H.58V.64h38.53"/><path class="cls-1" d="M2.52 2.71H36.9v9.66H2.52zM2.5 14.47h34.4v35.51H2.5zM2.51 56.79v-4.71h6.9v1.1H5.28v.67h3.5v1.1h-3.5v.74h4.29v1.1H2.51zM15.44 53.45a.52.52 0 0 0-.4-.32 2.53 2.53 0 0 0-.72-.09c-.61 0-.88.1-.88.28 0 .69 4.87.26 4.87 2 0 1.09-1.64 1.63-4 1.63s-3.7-.73-3.75-1.58h2.65a.69.69 0 0 0 .46.37 2.52 2.52 0 0 0 .79.12c.7 0 1.16-.12 1.16-.35 0-.71-4.88-.22-4.88-2 0-1 1.56-1.5 3.67-1.5 2.35 0 3.42.66 3.63 1.49zM22.46 54.12h1.09c.86 0 1.32-.12 1.32-.45s-.47-.49-1.11-.49h-1.3zm0 1v1.64h-2.77v-4.68h4c2.82 0 3.75.43 3.75 1.34 0 .55-.44 1-1.43 1.16.9.18 1.44.29 1.44 1.24 0 .61 0 .83.29.83v.14h-2.81a1.83 1.83 0 0 1-.14-.82c0-.62-.19-.82-1.48-.82zM31.91 53.18V54h1.16c.55 0 1-.14 1-.41s-.54-.38-1.13-.38zm0 1.64v.87h1.21c.69 0 1.21-.08 1.21-.43s-.65-.44-1.53-.44zm-2.77 2v-4.74h4c1.9 0 3.42.25 3.42 1.18 0 .49-.57.84-1.1 1 .91.13 1.4.57 1.4 1.08 0 1.05-1.44 1.42-3.64 1.42z"/><path d="M21 36.29c-.57-2.13-1.71-3.37-3.33-3.81 1-1.18 1.58-3 .81-5.87-1.09-4-3.85-5.95-7.2-5.06l-7.62 2h-.15L9.79 47l5.1-1.36-2.43-9 .24-.07a2.37 2.37 0 0 1 1.73 0c.68.39 1 1.56 1.35 2.91l.28 1.07a10.1 10.1 0 0 0 1.56 3.79l.35.45 5.83-1.54-.79-1A33.93 33.93 0 0 1 21 36.29zm-8.34-4.18l-1.3.35c-.38-1.41-1.25-4.65-1.63-6.05l1.3-.35c.61-.16 1.65-.43 2.4 2.36.11.58.77 3.27-.8 3.69zM27.36 17.67l-6.87 1.82-.82.22L26 43.07l5.21-1.39s-2-7.5-2.4-8.84l2.19-.59c4.06-1.09 5.61-4.24 4.36-8.88-1.59-6.04-5.23-6.43-8-5.7zM29.48 28l-1.85.5L26 22.48l1.58-.42c.9-.24 1.92-.24 2.74 2.77.39 1.43-.02 2.99-.84 3.17zM4.15 10.28h-.68V4.8h1.27a.63.63 0 0 1 .56.36 2.36 2.36 0 0 1 .2 1.08 2.29 2.29 0 0 1-.14.88.66.66 0 0 1-.47.46h.16a.49.49 0 0 1 .2.14 1 1 0 0 1 .17.31 2.18 2.18 0 0 1 .07.58V9.95a1.23 1.23 0 0 0 0 .29h-.6a2.84 2.84 0 0 1-.07-.52v-1a1.48 1.48 0 0 0-.05-.39.55.55 0 0 0-.14-.26.45.45 0 0 0-.3-.1h-.18zm0-3.11h.31a.23.23 0 0 0 .17-.08.68.68 0 0 0 .11-.19 2 2 0 0 0 0-.26v-.28a1.07 1.07 0 0 0-.1-.55.28.28 0 0 0-.25-.17h-.24zM5.76 10.28l.9-5.48h.91l.89 5.48h-.72l-.19-1.21h-.93l-.19 1.21zm1.32-4.42l-.33 2.37h.66zM10.46 4.8v.91H9.7v4.57H9V5.71h-.75V4.8zM10.78 10.28V4.8h.68v5.48zM12 10.28V4.8h1l.87 3.8V4.8h.64v5.48h-.9l-.9-4v4zM16.56 6.49v-.37a1.17 1.17 0 0 0-.05-.3.44.44 0 0 0-.13-.21.29.29 0 0 0-.21-.08.28.28 0 0 0-.25.17 1.44 1.44 0 0 0-.13.44 6.12 6.12 0 0 0 0 .65v1.77a3.5 3.5 0 0 0 .08.61.6.6 0 0 0 .13.33.36.36 0 0 0 .24.08.47.47 0 0 0 .17 0l.17-.08V8.26h-.37v-.85h1.06v2.78l-.19.06-.25.06h-.49a1.35 1.35 0 0 1-.69-.16 1 1 0 0 1-.39-.5 3.7 3.7 0 0 1-.17-.89V7.43v-1a3.77 3.77 0 0 1 .14-.89 1.41 1.41 0 0 1 .31-.54 1 1 0 0 1 1.11-.12 1 1 0 0 1 .34.34 1.62 1.62 0 0 1 .2.55 3.59 3.59 0 0 1 .06.77zM18.85 4.8h1.24a.75.75 0 0 1 .4.11.89.89 0 0 1 .27.33 1.87 1.87 0 0 1 .15.52 4.72 4.72 0 0 1 .05.68 5 5 0 0 1 0 .52 1.8 1.8 0 0 1-.13.52 1 1 0 0 1-.27.41.68.68 0 0 1-.48.16h-.51v2.23h-.69zm.69 2.41h.38a.17.17 0 0 0 .14-.07.64.64 0 0 0 .11-.14 1.37 1.37 0 0 0 .07-.24 1.23 1.23 0 0 0 0-.27v-.32a.91.91 0 0 0-.06-.26.41.41 0 0 0-.12-.18.29.29 0 0 0-.19-.07h-.34zM21.37 10.28V4.8h1.79v.84h-1.1V7h1v.84h-1v1.6h1.14v.84zM23.64 10.28V4.8h.93l.87 3.8V4.8h.64v5.48h-.9l-.9-4v4zM26.68 4.8h1.14a.81.81 0 0 1 .55.18 1.11 1.11 0 0 1 .32.53 3.77 3.77 0 0 1 .16.86V8.59a4.21 4.21 0 0 1-.09.62 1.66 1.66 0 0 1-.18.53 1.12 1.12 0 0 1-.32.39.83.83 0 0 1-.48.14h-1.1zm.69 4.64h.33a.33.33 0 0 0 .25-.1.63.63 0 0 0 .15-.34 3.67 3.67 0 0 0 .08-.59v-.88-.72a3.45 3.45 0 0 0-.05-.6A1.21 1.21 0 0 0 28 5.8a.31.31 0 0 0-.28-.16h-.35zM29.44 10.28V4.8h.69v5.48zM30.71 10.28V4.8h.92l.87 3.8V4.8h.64v5.48h-.9l-.89-4v4zM35.23 6.49v-.37a1.13 1.13 0 0 0-.06-.3.53.53 0 0 0-.17-.21.33.33 0 0 0-.22-.08.28.28 0 0 0-.25.17 1.46 1.46 0 0 0-.12.44 4.19 4.19 0 0 0-.05.65v1.77a3.68 3.68 0 0 0 .07.61.6.6 0 0 0 .15.29.41.41 0 0 0 .24.08H35l.16-.08v-1.2h-.37v-.85h1.06v2.78l-.18.06-.25.06h-.5a1.34 1.34 0 0 1-.68-.16.91.91 0 0 1-.39-.5 2.93 2.93 0 0 1-.17-.89V7.43v-1a4.37 4.37 0 0 1 .14-.89A1.51 1.51 0 0 1 34.2 5a.89.89 0 0 1 .66-.24.84.84 0 0 1 .45.12.92.92 0 0 1 .34.34 1.62 1.62 0 0 1 .21.55 3.64 3.64 0 0 1 0 .77z"/></g></g></svg>